 http://imgr.us/images/notfl5i3klar2o5m9xj1.jpg

Info:

General

Complete name : Lay the Favorite 2012 BRRip x264 AAC-UNiQUE.mp4

Format : MPEG-4

Format profile : Base Media

Codec ID : isom

File size : 1.61 GiB

Duration : 1h 33mn

Overall bit rate mode : Variable

Overall bit rate : 2 467 Kbps



Video

ID : 1

Format : AVC

Format/Info : Advanced Video Codec

Format profile : High@L4.1

Format settings, CABAC : Yes

Format settings, ReFrames : 3 frames

Codec ID : avc1

Codec ID/Info : Advanced Video Coding

Duration : 1h 33mn

Bit rate mode : Variable

Bit rate : 2 121 Kbps

Maximum bit rate : 40.0 Mbps

Width : 720 pixels

Height : 384 pixels

Display aspect ratio : 1.85:1

Frame rate mode : Constant

Frame rate : 24.000 fps

Color space : YUV

Chroma subsampling : 4:2:0

Bit depth : 8 bits

Scan type : Progressive

Bits/(Pixel*Frame) : 0.320

Stream size : 1.39 GiB (86%)



Audio

ID : 2

Format : AAC

Format/Info : Advanced Audio Codec

Format profile : LC

Codec ID : 40

Duration : 1h 33mn

Bit rate mode : Variable

Bit rate : 345 Kbps

Maximum bit rate : 404 Kbps

Channel(s) : 6 channels

Channel positions : Front: L C R, Side: L R, LFE

Sampling rate : 48.0 KHz

Compression mode : Lossy

Stream size : 231 MiB (14%)

Language : English

Encoded date : UTC 2012-12-04 22:12:17



Sources : Video - German.720p.BluRay.x264-ENCOUNTERS - Thanks!

: Audio - English 6ch DVD5 MASTER - Thanks!



Sample Included : Yes.



Storyline

Beth, a Las Vegas cocktail waitress, falls in with Dink, a sports gambler who swoons for her as she proves to be something of a gambling prodigy, earning the initial ire of Dink's wife, Tulip.



IMDB: http://uk.imdb.com/title/tt1132449/


Notes:

Bluray had german audio only, i synced and muxed the english 6ch audio from the dvd5 vobs to this after a -1350ms delay, the intro text is in german also but its only a couple of lines, thats all.

Enjoy another KICKASS UNiQUE RELEASE !!!!!!


Screens: 
http://imgr.us/images/a5dc5m0r20zv79t3s8.png 
http://imgr.us/images/ud6cj0zb8xsxffk7hs6f.png 
http://imgr.us/images/3tzarkf1vfd0m9j9vo4v.png 
http://imgr.us/images/rars7yj60qggy7el76x.png 
http://imgr.us/images/6yizpf8204z8hodru0hn.png